# xmcd
# 
# Track frame offsets:
#     150
#     14787
#     42167
#     57737
#     74765
#     90590
#     108717
#     128387
#     145690
#     162750
#     186060
#     202392
#     221582
#     250615
#     267357
#     287067
#     306745
#     323977
# 
# Disc length: 4575
# 
# Revision: 4
# Processed by: cddbd v1.5.2PL0 Copyright (c) Steve Scherf et al.
# Submitted via: fre:ac v1.0.31
# 
DISCID=2111dd12
DTITLE=Megadeth - Anthology - Set The World Afire [CD2)
DYEAR=2008
DGENRE=Metal
TTITLE0=Skin O' My Teeth (1992)
TTITLE1=Ashes In Your Mouth (1992)
TTITLE2=Breakpoint (1994)
TTITLE3=Angry Again (1994)
TTITLE4=Train Of Consequences (1994)
TTITLE5=Reckoning Day [Live] (1997)
TTITLE6=A Tout Le Monde (1994)
TTITLE7=The Killing Road (1994)
TTITLE8=New World Order (1995)
TTITLE9=Trust (1997)
TTITLE10=She-Wolf (1997)
TTITLE11=Insomnia (1999)
TTITLE12=Prince Of Darkness (1999)
TTITLE13=Kill The King (2000)
TTITLE14=Dread And The Fugitive Mind (2000)
TTITLE15=Foreclosure Of A Dream (1992)
TTITLE16=Symphony Of Destruction [Live]
TTITLE17=Peace Sells [Live] (1993)
EXTD=
EXTT0=
EXTT1=
EXTT2=
EXTT3=
EXTT4=
EXTT5=
EXTT6=
EXTT7=
EXTT8=
EXTT9=
EXTT10=
EXTT11=
EXTT12=
EXTT13=
EXTT14=
EXTT15=
EXTT16=
EXTT17=
PLAYORDER=
